<svg width="505" height="110" viewBox="0 0 505 110" fill="none" xmlns="http://www.w3.org/2000/svg">
<g clip-path="url(#clip0_3_3)">
<rect x="7" y="7" width="98" height="98" rx="13" fill="#F092DD" stroke="#0B0D2A" stroke-width="2"/>
<rect x="4" y="4" width="98" height="98" rx="13" fill="#FFC8EB" stroke="#0B0D2A" stroke-width="2"/>
<rect x="1" y="1" width="98" height="98" rx="13" fill="#6439B5" stroke="#0B0D2A" stroke-width="2"/>
<rect x="18" y="58" width="14" height="25" rx="3" fill="#FFC8EB"/>
<rect x="43" y="38" width="14" height="45" rx="3" fill="#F092DD"/>
<rect x="68" y="18" width="14" height="65" rx="3" fill="white"/>
<g clip-path="url(#clip1_3_3)">
<path d="M159.632 82.268C156.645 82.268 153.872 81.7133 151.312 80.604C148.752 79.452 146.576 77.8947 144.784 75.932C142.992 73.9693 141.669 71.708 140.816 69.148L147.216 66.46C148.368 69.404 150.053 71.6653 152.272 73.244C154.491 74.8227 157.051 75.612 159.952 75.612C161.659 75.612 163.152 75.356 164.432 74.844C165.712 74.2893 166.693 73.5213 167.376 72.54C168.101 71.5587 168.464 70.428 168.464 69.148C168.464 67.3987 167.973 66.012 166.992 64.988C166.011 63.964 164.56 63.1533 162.64 62.556L153.68 59.74C150.096 58.6307 147.365 56.9453 145.488 54.684C143.611 52.38 142.672 49.692 142.672 46.62C142.672 43.932 143.333 41.5853 144.656 39.58C145.979 37.532 147.792 35.932 150.096 34.78C152.443 33.628 155.109 33.052 158.096 33.052C160.955 33.052 163.557 33.564 165.904 34.588C168.251 35.5693 170.256 36.9347 171.92 38.684C173.627 40.4333 174.864 42.46 175.632 44.764L169.36 47.516C168.421 44.9987 166.949 43.0573 164.944 41.692C162.981 40.3267 160.699 39.644 158.096 39.644C156.517 39.644 155.131 39.9213 153.936 40.476C152.741 40.988 151.803 41.756 151.12 42.78C150.48 43.7613 150.16 44.9133 150.16 46.236C150.16 47.772 150.651 49.1373 151.632 50.332C152.613 51.5267 154.107 52.4227 156.112 53.02L164.432 55.644C168.229 56.796 171.088 58.46 173.008 60.636C174.928 62.7693 175.888 65.436 175.888 68.636C175.888 71.2813 175.184 73.628 173.776 75.676C172.411 77.724 170.512 79.3453 168.08 80.54C165.648 81.692 162.832 82.268 159.632 82.268ZM198.83 82.268C195.374 82.268 192.302 81.4787 189.614 79.9C186.968 78.2787 184.856 76.1027 183.278 73.372C181.742 70.6413 180.974 67.548 180.974 64.092C180.974 60.6787 181.742 57.6067 183.278 54.876C184.814 52.1453 186.926 50.012 189.614 48.476C192.302 46.8973 195.374 46.108 198.83 46.108C201.176 46.108 203.374 46.5347 205.422 47.388C207.47 48.1987 209.24 49.3293 210.734 50.78C212.27 52.2307 213.4 53.916 214.126 55.836L207.79 58.78C207.064 56.988 205.891 55.5587 204.27 54.492C202.691 53.3827 200.878 52.828 198.83 52.828C196.867 52.828 195.096 53.3187 193.518 54.3C191.982 55.2387 190.766 56.5827 189.87 58.332C188.974 60.0387 188.526 61.98 188.526 64.156C188.526 66.332 188.974 68.2947 189.87 70.044C190.766 71.7507 191.982 73.0947 193.518 74.076C195.096 75.0573 196.867 75.548 198.83 75.548C200.92 75.548 202.734 75.0147 204.27 73.948C205.848 72.8387 207.022 71.3667 207.79 69.532L214.126 72.54C213.443 74.3747 212.334 76.0387 210.798 77.532C209.304 78.9827 207.534 80.1347 205.486 80.988C203.438 81.8413 201.219 82.268 198.83 82.268ZM219.914 81.5V33.052H227.146V53.66L225.994 52.764C226.847 50.588 228.213 48.9453 230.09 47.836C231.967 46.684 234.143 46.108 236.618 46.108C239.178 46.108 241.439 46.6627 243.402 47.772C245.365 48.8813 246.901 50.4173 248.01 52.38C249.119 54.3427 249.674 56.5827 249.674 59.1V81.5H242.506V61.084C242.506 59.3347 242.165 57.8627 241.482 56.668C240.842 55.4307 239.946 54.492 238.794 53.852C237.642 53.1693 236.319 52.828 234.826 52.828C233.375 52.828 232.053 53.1693 230.858 53.852C229.706 54.492 228.789 55.4307 228.106 56.668C227.466 57.9053 227.146 59.3773 227.146 61.084V81.5H219.914ZM272.838 82.268C269.51 82.268 266.459 81.4787 263.686 79.9C260.955 78.3213 258.779 76.1667 257.158 73.436C255.537 70.7053 254.726 67.612 254.726 64.156C254.726 60.6573 255.537 57.564 257.158 54.876C258.779 52.1453 260.955 50.012 263.686 48.476C266.417 46.8973 269.467 46.108 272.838 46.108C276.251 46.108 279.302 46.8973 281.99 48.476C284.721 50.012 286.875 52.1453 288.454 54.876C290.075 57.564 290.886 60.6573 290.886 64.156C290.886 67.6547 290.075 70.7693 288.454 73.5C286.833 76.2307 284.657 78.3853 281.926 79.964C279.195 81.5 276.166 82.268 272.838 82.268ZM272.838 75.548C274.886 75.548 276.699 75.0573 278.278 74.076C279.857 73.0947 281.094 71.7507 281.99 70.044C282.929 68.2947 283.398 66.332 283.398 64.156C283.398 61.98 282.929 60.0387 281.99 58.332C281.094 56.6253 279.857 55.2813 278.278 54.3C276.699 53.3187 274.886 52.828 272.838 52.828C270.833 52.828 269.019 53.3187 267.398 54.3C265.819 55.2813 264.561 56.6253 263.622 58.332C262.726 60.0387 262.278 61.98 262.278 64.156C262.278 66.332 262.726 68.2947 263.622 70.044C264.561 71.7507 265.819 73.0947 267.398 74.076C269.019 75.0573 270.833 75.548 272.838 75.548ZM313.371 82.268C310.043 82.268 306.992 81.4787 304.219 79.9C301.488 78.3213 299.312 76.1667 297.691 73.436C296.069 70.7053 295.259 67.612 295.259 64.156C295.259 60.6573 296.069 57.564 297.691 54.876C299.312 52.1453 301.488 50.012 304.219 48.476C306.949 46.8973 310 46.108 313.371 46.108C316.784 46.108 319.835 46.8973 322.523 48.476C325.253 50.012 327.408 52.1453 328.987 54.876C330.608 57.564 331.419 60.6573 331.419 64.156C331.419 67.6547 330.608 70.7693 328.987 73.5C327.365 76.2307 325.189 78.3853 322.459 79.964C319.728 81.5 316.699 82.268 313.371 82.268ZM313.371 75.548C315.419 75.548 317.232 75.0573 318.811 74.076C320.389 73.0947 321.627 71.7507 322.523 70.044C323.461 68.2947 323.931 66.332 323.931 64.156C323.931 61.98 323.461 60.0387 322.523 58.332C321.627 56.6253 320.389 55.2813 318.811 54.3C317.232 53.3187 315.419 52.828 313.371 52.828C311.365 52.828 309.552 53.3187 307.931 54.3C306.352 55.2813 305.093 56.6253 304.155 58.332C303.259 60.0387 302.811 61.98 302.811 64.156C302.811 66.332 303.259 68.2947 304.155 70.044C305.093 71.7507 306.352 73.0947 307.931 74.076C309.552 75.0573 311.365 75.548 313.371 75.548ZM337.199 81.5V33.052H344.431V81.5H337.199Z" fill="#060419"/>
<rect width="152" height="87" transform="translate(353 11.5)" fill="#FFC8EB"/>
<path d="M369.224 81.5V33.82H387.464C390.749 33.82 393.651 34.396 396.168 35.548C398.728 36.7 400.733 38.4067 402.184 40.668C403.635 42.9293 404.36 45.724 404.36 49.052C404.36 52.2947 403.613 55.068 402.12 57.372C400.627 59.6333 398.621 61.34 396.104 62.492L406.984 81.5H395.848L384.072 60.444L390.472 64.22H379.144V81.5H369.224ZM379.144 55.58H387.528C388.936 55.58 390.152 55.3027 391.176 54.748C392.2 54.1933 392.989 53.4253 393.544 52.444C394.141 51.4627 394.44 50.332 394.44 49.052C394.44 47.7293 394.141 46.5773 393.544 45.596C392.989 44.6147 392.2 43.8467 391.176 43.292C390.152 42.7373 388.936 42.46 387.528 42.46H379.144V55.58ZM409.928 81.5V46.556H419.528V81.5H409.928ZM409.928 43.42V33.82H419.528V43.42H409.928ZM438.969 82.268C435.128 82.268 431.779 81.372 428.92 79.58C426.104 77.7453 424.184 75.292 423.16 72.22L430.2 68.892C431.096 70.7693 432.312 72.2413 433.848 73.308C435.384 74.3747 437.091 74.908 438.969 74.908C440.334 74.908 441.379 74.6307 442.104 74.076C442.83 73.5213 443.192 72.7533 443.192 71.772C443.192 71.26 443.064 70.8333 442.809 70.492C442.552 70.108 442.168 69.7667 441.656 69.468C441.145 69.1693 440.505 68.9133 439.736 68.7L433.784 67.036C430.926 66.2253 428.728 64.924 427.192 63.132C425.656 61.2973 424.888 59.1427 424.888 56.668C424.888 54.492 425.443 52.5933 426.552 50.972C427.662 49.3507 429.219 48.092 431.224 47.196C433.23 46.2573 435.534 45.788 438.136 45.788C441.55 45.788 444.537 46.5987 447.097 48.22C449.699 49.7987 451.534 52.0387 452.601 54.94L445.497 58.268C444.985 56.8173 444.046 55.6653 442.681 54.812C441.358 53.916 439.843 53.468 438.136 53.468C436.899 53.468 435.918 53.724 435.192 54.236C434.51 54.748 434.168 55.452 434.168 56.348C434.168 56.8173 434.296 57.244 434.552 57.628C434.808 58.012 435.214 58.3533 435.768 58.652C436.366 58.9507 437.091 59.228 437.944 59.484L443.512 61.148C446.414 62.0013 448.633 63.3027 450.169 65.052C451.705 66.7587 452.472 68.8707 452.472 71.388C452.472 73.564 451.896 75.4627 450.744 77.084C449.635 78.7053 448.078 79.9853 446.073 80.924C444.067 81.82 441.699 82.268 438.969 82.268ZM473.762 82.268C470.05 82.268 466.829 81.4573 464.098 79.836C461.367 78.172 459.255 75.9533 457.762 73.18C456.269 70.4067 455.522 67.3347 455.522 63.964C455.522 60.4653 456.29 57.3507 457.826 54.62C459.405 51.8893 461.517 49.7347 464.162 48.156C466.807 46.5773 469.794 45.788 473.122 45.788C475.895 45.788 478.349 46.236 480.482 47.132C482.615 47.9853 484.407 49.2013 485.858 50.78C487.351 52.3587 488.482 54.1933 489.25 56.284C490.018 58.332 490.402 60.572 490.402 63.004C490.402 63.6867 490.359 64.3693 490.274 65.052C490.231 65.692 490.125 66.2467 489.954 66.716H463.778V59.676H484.514L479.97 63.004C480.397 61.1693 480.375 59.548 479.906 58.14C479.437 56.6893 478.605 55.5587 477.41 54.748C476.258 53.8947 474.829 53.468 473.122 53.468C471.458 53.468 470.029 53.8733 468.834 54.684C467.639 55.4947 466.743 56.6893 466.146 58.268C465.549 59.8467 465.314 61.7667 465.442 64.028C465.271 65.9907 465.506 67.7187 466.146 69.212C466.786 70.7053 467.767 71.8787 469.09 72.732C470.413 73.5427 472.013 73.948 473.89 73.948C475.597 73.948 477.047 73.6067 478.242 72.924C479.479 72.2413 480.439 71.3027 481.122 70.108L488.802 73.756C488.119 75.4627 487.031 76.956 485.538 78.236C484.087 79.516 482.359 80.5187 480.354 81.244C478.349 81.9267 476.151 82.268 473.762 82.268Z" fill="#060419"/>
</g>
</g>
<defs>
<clipPath id="clip0_3_3"><rect width="505" height="110" fill="white"/></clipPath>
<clipPath id="clip1_3_3"><rect width="367" height="87" fill="white" transform="translate(138 11.5)"/></clipPath>
</defs>
</svg>
